<svg width="48" height="50" viewBox="0 0 48 50" fill="none" xmlns="http://www.w3.org/2000/svg">
<path d="M0 24.5C0 11.2452 10.7452 0.5 24 0.5C37.2548 0.5 48 11.2452 48 24.5V25.5C48 38.7548 37.2548 49.5 24 49.5C10.7452 49.5 0 38.7548 0 25.5V24.5Z" fill="#82C534"/>
<path d="M30.2125 30.8516L26.1547 26.7937C26.7844 25.9797 27.125 24.9844 27.125 23.9375C27.125 22.6844 26.6359 21.5094 25.7516 20.6234C24.8672 19.7375 23.6891 19.25 22.4375 19.25C21.1859 19.25 20.0078 19.7391 19.1234 20.6234C18.2375 21.5078 17.75 22.6844 17.75 23.9375C17.75 25.1891 18.2391 26.3672 19.1234 27.2516C20.0078 28.1375 21.1844 28.625 22.4375 28.625C23.4844 28.625 24.4781 28.2844 25.2922 27.6562L29.35 31.7125C29.3619 31.7244 29.376 31.7338 29.3916 31.7403C29.4071 31.7467 29.4238 31.7501 29.4406 31.7501C29.4575 31.7501 29.4741 31.7467 29.4897 31.7403C29.5052 31.7338 29.5194 31.7244 29.5312 31.7125L30.2125 31.0328C30.2244 31.0209 30.2338 31.0068 30.2403 30.9912C30.2467 30.9757 30.2501 30.959 30.2501 30.9422C30.2501 30.9254 30.2467 30.9087 30.2403 30.8931C30.2338 30.8776 30.2244 30.8635 30.2125 30.8516ZM24.9125 26.4125C24.25 27.0734 23.3719 27.4375 22.4375 27.4375C21.5031 27.4375 20.625 27.0734 19.9625 26.4125C19.3016 25.75 18.9375 24.8719 18.9375 23.9375C18.9375 23.0031 19.3016 22.1234 19.9625 21.4625C20.625 20.8016 21.5031 20.4375 22.4375 20.4375C23.3719 20.4375 24.2516 20.8 24.9125 21.4625C25.5734 22.125 25.9375 23.0031 25.9375 23.9375C25.9375 24.8719 25.5734 25.7516 24.9125 26.4125Z" fill="white"/>
</svg>
