<svg width="22" height="14" viewBox="0 0 22 14" fill="none" xmlns="http://www.w3.org/2000/svg">
<path d="M15.125 0.625C11.8906 0.625 9.21875 3.03438 8.80625 6.15625H4.83594C4.50313 5.33125 3.69453 4.75 2.75 4.75C1.50781 4.75 0.5 5.75781 0.5 7C0.5 8.24219 1.50781 9.25 2.75 9.25C3.69453 9.25 4.50313 8.66875 4.83594 7.84375H8.80391C9.21875 10.9656 11.8906 13.375 15.125 13.375C18.6453 13.375 21.5 10.5203 21.5 7C21.5 3.47969 18.6453 0.625 15.125 0.625ZM18.125 7.60938C18.125 7.7125 18.0406 7.79688 17.9375 7.79688H15.9219V9.8125C15.9219 9.91562 15.8375 10 15.7344 10H14.5156C14.4125 10 14.3281 9.91562 14.3281 9.8125V7.79688H12.3125C12.2094 7.79688 12.125 7.7125 12.125 7.60938V6.39062C12.125 6.2875 12.2094 6.20312 12.3125 6.20312H14.3281V4.1875C14.3281 4.08437 14.4125 4 14.5156 4H15.7344C15.8375 4 15.9219 4.08437 15.9219 4.1875V6.20312H17.9375C18.0406 6.20312 18.125 6.2875 18.125 6.39062V7.60938Z" fill="white"/>
</svg>
