<svg width="20" height="20" viewBox="0 0 20 20" fill="none" xmlns="http://www.w3.org/2000/svg">
<path d="M17.6688 4.51797C17.6198 4.36752 17.5245 4.23639 17.3966 4.14336C17.2686 4.05033 17.1145 4.00015 16.9562 4H15.25V1.375C15.25 0.960156 14.9148 0.625 14.5 0.625H5.5C5.08516 0.625 4.75 0.960156 4.75 1.375V4H3.04375C2.88545 3.99979 2.73116 4.04983 2.60312 4.14291C2.47508 4.236 2.37988 4.36732 2.33125 4.51797L0.625 9.76562V18.625C0.625 19.0398 0.960156 19.375 1.375 19.375H18.625C19.0398 19.375 19.375 19.0398 19.375 18.625V9.76562L17.6688 4.51797ZM6.4375 2.3125H13.5625V4H6.4375V2.3125ZM17.6875 17.6875H2.3125V10.0328L3.72578 5.6875H16.2742L17.6875 10.0328V17.6875ZM13.2812 11.4062H10.75V8.875C10.75 8.77188 10.6656 8.6875 10.5625 8.6875H9.4375C9.33438 8.6875 9.25 8.77188 9.25 8.875V11.4062H6.71875C6.61562 11.4062 6.53125 11.4906 6.53125 11.5938V12.7188C6.53125 12.8219 6.61562 12.9062 6.71875 12.9062H9.25V15.4375C9.25 15.5406 9.33438 15.625 9.4375 15.625H10.5625C10.6656 15.625 10.75 15.5406 10.75 15.4375V12.9062H13.2812C13.3844 12.9062 13.4688 12.8219 13.4688 12.7188V11.5938C13.4688 11.4906 13.3844 11.4062 13.2812 11.4062Z" fill="white"/>
</svg>
