<svg width="20" height="20" viewBox="0 0 20 20" fill="none" xmlns="http://www.w3.org/2000/svg">
<path d="M17.3168 14.4035C16.7301 13.8164 16.0446 13.3372 15.2918 12.9879C16.3535 12.1277 17.0308 10.8152 17.0308 9.34332C17.0308 6.74645 14.8652 4.61598 12.2683 4.65582C9.71129 4.69567 7.65113 6.77926 7.65113 9.34332C7.65113 10.8152 8.33082 12.1277 9.3902 12.9879C8.63716 13.3369 7.95165 13.8161 7.3652 14.4035C6.08551 15.6855 5.35895 17.3777 5.31207 19.1824C5.31145 19.2074 5.31583 19.2323 5.32498 19.2556C5.33412 19.2789 5.34783 19.3001 5.3653 19.318C5.38278 19.3359 5.40366 19.3502 5.42672 19.3599C5.44978 19.3696 5.47455 19.3746 5.49957 19.3746H6.81207C6.91285 19.3746 6.99723 19.2949 6.99957 19.1941C7.0441 17.8347 7.59488 16.5621 8.56285 15.5964C9.05818 15.0985 9.64735 14.7037 10.2963 14.435C10.9452 14.1662 11.641 14.0289 12.3433 14.0308C13.7707 14.0308 15.1136 14.5863 16.1238 15.5964C17.0894 16.5621 17.6402 17.8347 17.6871 19.1941C17.6894 19.2949 17.7738 19.3746 17.8746 19.3746H19.1871C19.2121 19.3746 19.2369 19.3696 19.2599 19.3599C19.283 19.3502 19.3039 19.3359 19.3213 19.318C19.3388 19.3001 19.3525 19.2789 19.3617 19.2556C19.3708 19.2323 19.3752 19.2074 19.3746 19.1824C19.3277 17.3777 18.6011 15.6855 17.3168 14.4035ZM12.3433 12.3433C11.5418 12.3433 10.7871 12.0316 10.2222 11.4644C9.93876 11.1832 9.71484 10.8477 9.56384 10.4781C9.41283 10.1084 9.33784 9.71213 9.34332 9.31285C9.35035 8.54411 9.65738 7.80114 10.1941 7.25035C10.7566 6.67379 11.5089 6.3527 12.3129 6.34332C13.1074 6.33629 13.8785 6.64567 14.4457 7.20114C15.0269 7.77067 15.3457 8.53239 15.3457 9.34332C15.3457 10.1449 15.0339 10.8972 14.4668 11.4644C14.1885 11.744 13.8575 11.9657 13.4931 12.1165C13.1286 12.2674 12.7378 12.3445 12.3433 12.3433ZM6.47223 9.96207C6.45113 9.75817 6.43941 9.55192 6.43941 9.34332C6.43941 8.97067 6.47457 8.60739 6.5402 8.25348C6.5566 8.1691 6.51207 8.08239 6.43473 8.04723C6.11598 7.90426 5.82301 7.70739 5.56988 7.45895C5.27162 7.16975 5.03691 6.82155 4.88074 6.43656C4.72457 6.05158 4.65036 5.63828 4.66285 5.22301C4.68395 4.47067 4.98629 3.75582 5.51363 3.21676C6.09254 2.62379 6.87066 2.30035 7.69801 2.30973C8.44566 2.31676 9.16754 2.60504 9.71363 3.11598C9.89879 3.28942 10.0582 3.4816 10.1918 3.68785C10.2386 3.76051 10.33 3.79098 10.4097 3.76285C10.8222 3.61989 11.2582 3.5191 11.7058 3.47223C11.8371 3.45817 11.9121 3.31754 11.8535 3.20035C11.0918 1.69332 9.53551 0.652698 7.73551 0.624573C5.13629 0.58473 2.97066 2.7152 2.97066 5.30973C2.97066 6.7816 3.64801 8.0941 4.70973 8.95426C3.96441 9.29879 3.2777 9.77457 2.68238 10.3699C1.39801 11.6519 0.671445 13.3441 0.62457 15.1511C0.623945 15.1761 0.628332 15.201 0.637475 15.2243C0.646617 15.2476 0.660329 15.2688 0.677803 15.2868C0.695276 15.3047 0.716158 15.3189 0.739218 15.3286C0.762277 15.3383 0.787048 15.3433 0.81207 15.3433H2.12691C2.2277 15.3433 2.31207 15.2636 2.31441 15.1629C2.35895 13.8035 2.90973 12.5308 3.8777 11.5652C4.56676 10.8761 5.41051 10.398 6.3316 10.166C6.42301 10.1425 6.48395 10.0558 6.47223 9.96207Z" fill="white"/>
</svg>
