<svg width="40" height="40" viewBox="0 0 40 40" fill="none" xmlns="http://www.w3.org/2000/svg">
<path d="M28.1817 10.8364V0.909091C28.1817 0.4 27.7817 0 27.2726 0H19.2362C18.7271 0 18.3271 0.4 18.3271 0.909091V9.34546C18.3271 9.67273 18.509 10 18.8362 10.1455C23.5635 12.5091 27.4181 16.3636 29.7817 21.0909C29.9271 21.3818 30.2544 21.6 30.5817 21.6H39.0908C39.5999 21.6 39.9999 21.2 39.9999 20.6909V12.6545C39.9999 12.1455 39.5999 11.7455 39.0908 11.7455H29.0908C28.5817 11.7455 28.1817 11.3455 28.1817 10.8364Z" fill="#0B2C74"/>
<path d="M30.7636 32.109C30.7636 28.509 29.9273 24.7636 28.4364 21.709C28.4364 21.709 28.3636 21.5636 28.2909 21.5999C28.2909 21.5999 28.1818 21.5999 28.1818 21.7818V24.7999C28.1818 24.8727 28.1818 24.9454 28.1818 25.0181V28.2181V32.3636C28.1818 32.8727 27.7818 33.2727 27.2727 33.2727H19.2364C18.7273 33.2727 18.3273 32.8727 18.3273 32.3636V22.5454C18.3273 22.0363 17.9273 21.6363 17.4182 21.6363H7.38182C6.87273 21.6363 6.47273 21.2363 6.47273 20.7272V12.6545C6.47273 12.1454 6.87273 11.7454 7.38182 11.7454H14.9455H14.9818H17.8182C17.9636 11.7454 18 11.6363 18 11.6363C18 11.5272 17.8909 11.4908 17.8909 11.4908C14.8364 9.99994 11.4545 9.16357 7.81818 9.16357C5.89091 9.16357 4.03636 9.41812 2.25455 9.85448C1.27273 10.109 0.545455 10.8727 0.363636 11.8545C0.254545 12.5454 0.145455 13.2727 0.0727273 13.9999C0.0363636 14.6908 0 15.3818 0 16.0727C0 22.6545 2.65455 28.6181 6.98182 32.9454C11.3091 37.2727 17.2727 39.9272 23.8545 39.9272C24.5455 39.9272 25.2364 39.8909 25.8909 39.8181C26.6182 39.7454 27.3455 39.6727 28.0364 39.5272C29.0182 39.3454 29.7818 38.6181 30.0364 37.6363C30.5091 35.8909 30.7636 33.9999 30.7636 32.109Z" fill="#84BD00"/>
</svg>
