<svg width="133" height="42" viewBox="0 0 133 42" fill="none" xmlns="http://www.w3.org/2000/svg">
<g clip-path="url(#clip0)">
<path d="M30.9256 11.3989V0.956284C30.9256 0.420765 30.4867 0 29.928 0H21.1092C20.5506 0 20.1116 0.420765 20.1116 0.956284V9.8306C20.1116 10.1749 20.3112 10.5191 20.6703 10.6721C25.8578 13.1585 30.0876 17.2131 32.6814 22.1858C32.841 22.4918 33.2001 22.7213 33.5593 22.7213H42.8968C43.4555 22.7213 43.8944 22.3005 43.8944 21.765V13.3115C43.8944 12.776 43.4555 12.3552 42.8968 12.3552H31.9232C31.3646 12.3552 30.9256 11.9344 30.9256 11.3989Z" fill="#0043A5"/>
<path d="M33.7588 33.776C33.7588 29.9891 32.841 26.0492 31.2049 22.8361C31.2049 22.8361 31.1251 22.6831 31.0453 22.7214C31.0453 22.7214 30.9256 22.7214 30.9256 22.9126V26.0875C30.9256 26.164 30.9256 26.2405 30.9256 26.317V29.6831V34.0438C30.9256 34.5793 30.4867 35.0001 29.928 35.0001H21.1092C20.5506 35.0001 20.1116 34.5793 20.1116 34.0438V23.7159C20.1116 23.1804 19.6727 22.7596 19.114 22.7596H8.10051C7.54185 22.7596 7.10291 22.3389 7.10291 21.8033V13.3115C7.10291 12.776 7.54185 12.3553 8.10051 12.3553H16.4005H16.4404H19.553C19.7126 12.3553 19.7525 12.2405 19.7525 12.2405C19.7525 12.1257 19.6328 12.0875 19.6328 12.0875C16.2808 10.5192 12.5698 9.6394 8.57936 9.6394C6.46445 9.6394 4.42934 9.90716 2.47405 10.3662C1.39664 10.6339 0.59856 11.4372 0.39904 12.47C0.279328 13.1968 0.159616 13.9618 0.079808 14.7268C0.039904 15.4536 0 16.1804 0 16.9072C0 23.8307 2.91299 30.1039 7.66157 34.6558C12.4101 39.2077 18.9544 42.0001 26.177 42.0001C26.9352 42.0001 27.6934 41.9618 28.4116 41.8853C29.2097 41.8088 30.0078 41.7323 30.766 41.5793C31.8434 41.388 32.6814 40.623 32.9607 39.5902C33.4795 37.7542 33.7588 35.7651 33.7588 33.776Z" fill="#96DD43"/>
<path d="M50.7978 4.43724C51.1569 3.97822 51.5959 3.59571 52.1146 3.32795C52.6334 3.06019 53.2319 2.90718 53.9502 2.90718C54.3891 2.90718 54.8281 2.94543 55.1872 3.06019C55.5464 3.17494 55.8257 3.28969 56.0252 3.40445L56.3045 3.55745L57.0228 2.1039L56.7435 1.91265C56.3843 1.72139 55.9454 1.53013 55.4266 1.41538C54.9079 1.30062 54.2694 1.22412 53.5911 1.22412C52.6334 1.22412 51.7954 1.41538 50.9973 1.75964C50.2391 2.14215 49.5608 2.60117 49.042 3.21319C48.5232 3.82521 48.0843 4.55199 47.805 5.35527C47.5256 6.15855 47.366 7.03833 47.366 7.91811C47.366 8.83614 47.5256 9.71592 47.805 10.5192C48.0843 11.3225 48.5232 12.0493 49.0819 12.6613C49.6406 13.2733 50.279 13.7706 51.0771 14.1148C51.8353 14.4591 52.7132 14.6503 53.6709 14.6503C54.3093 14.6503 54.9079 14.5738 55.4665 14.4591C56.0252 14.3061 56.4641 14.1531 56.7834 13.9618L57.0228 13.8088L56.3045 12.3553L56.0252 12.47C55.7858 12.5848 55.4665 12.6995 55.1473 12.776C54.8281 12.8525 54.429 12.8908 53.9901 12.8908C53.3516 12.8908 52.7531 12.7378 52.2343 12.47C51.7156 12.2023 51.2766 11.8197 50.9175 11.399C50.5583 10.94 50.279 10.4044 50.0795 9.79243C49.88 9.1804 49.8002 8.53013 49.8002 7.87986C49.8002 7.22958 49.88 6.61756 50.0795 6.00554C50.1593 5.43177 50.4386 4.89625 50.7978 4.43724Z" fill="#96DD43"/>
<path d="M60.6541 0H58.4194V14.3825H60.6541V0Z" fill="#96DD43"/>
<path d="M65.0435 4.1311H62.8089V14.3825H65.0435V4.1311Z" fill="#96DD43"/>
<path d="M66.5998 0.0765441C66.2805 -0.03821 65.8416 -0.03821 65.4027 0.0765441C65.2031 0.114795 64.9637 0.229549 64.8041 0.344304L64.7642 0.382555L62.8089 3.25141H64.4051L67.1584 0.688566L67.0387 0.459058C66.9589 0.306052 66.8392 0.153047 66.5998 0.0765441Z" fill="#96DD43"/>
<path d="M74.8199 4.59014C74.381 4.36063 73.8622 4.16937 73.3036 4.05462C72.7449 3.93986 72.1464 3.90161 71.5079 3.90161C70.7098 3.90161 69.9118 3.97811 69.1935 4.09287C68.4752 4.20762 67.8368 4.39888 67.3579 4.59014L67.1584 4.66664V14.4207H69.393V5.69943C69.5925 5.62292 69.8319 5.58467 70.1113 5.50817C70.8295 5.39341 71.6276 5.35516 72.3459 5.50817C72.6651 5.58467 72.9445 5.66117 73.2238 5.81418C73.4632 5.96719 73.6627 6.12019 73.8223 6.3497C73.982 6.54096 74.0219 6.80872 74.0219 7.11473V14.4207H76.2166V7.03822C76.2166 6.46445 76.0969 5.96719 75.8175 5.54642C75.618 5.16391 75.2589 4.81964 74.8199 4.59014Z" fill="#96DD43"/>
<path d="M85.634 6.50287C85.8734 6.19686 86.1926 5.9291 86.5917 5.73784C86.9508 5.54659 87.4296 5.47008 87.9085 5.47008C88.3075 5.47008 88.6667 5.50833 88.946 5.62309C89.2652 5.73784 89.4647 5.81435 89.6244 5.9291L89.9037 6.12036L90.582 4.74331L90.3825 4.5903C90.1032 4.39904 89.7441 4.24604 89.3051 4.09303C88.8263 3.94003 88.2277 3.86353 87.5493 3.86353C86.8311 3.86353 86.1926 3.97828 85.5941 4.24604C84.9955 4.47555 84.4368 4.85806 83.9979 5.31708C83.559 5.77609 83.1998 6.34986 82.9604 7.00014C82.721 7.65041 82.6013 8.41544 82.6013 9.21872C82.6013 10.022 82.721 10.787 82.9604 11.4373C83.1998 12.0876 83.559 12.6613 83.9979 13.1204C84.4368 13.5794 84.9556 13.9619 85.5541 14.1914C86.1527 14.4592 86.7912 14.5739 87.5094 14.5739C88.2277 14.5739 88.8263 14.4974 89.3051 14.3444C89.784 14.1914 90.183 14.0384 90.4224 13.8471L90.582 13.7706L89.9037 12.3171L89.6244 12.5083C89.4248 12.6231 89.1455 12.7378 88.8662 12.8526C88.5868 12.9674 88.2277 13.0056 87.8287 13.0056C87.3897 13.0056 86.9508 12.9291 86.5917 12.7378C86.2325 12.5466 85.9133 12.3171 85.634 11.9728C85.3546 11.6286 85.1551 11.246 84.9955 10.787C84.8359 10.328 84.7561 9.79249 84.7561 9.21872C84.7561 8.6832 84.8359 8.14768 84.9556 7.68866C85.1551 7.22965 85.3546 6.80888 85.634 6.50287Z" fill="#96DD43"/>
<path d="M100.039 5.73776C99.7999 5.27874 99.4806 4.93448 99.0816 4.66672C98.6825 4.39896 98.2037 4.2077 97.6849 4.09295C97.1662 3.97819 96.6075 3.93994 96.0489 3.93994C95.2907 3.93994 94.5724 4.01644 93.8941 4.16945C93.2556 4.32245 92.7369 4.47546 92.3777 4.62847L92.0984 4.74322L92.7768 6.15852L93.0561 6.04377C93.3753 5.92901 93.7744 5.77601 94.2931 5.66125C95.2109 5.47 96.1287 5.47 96.8869 5.58475C97.2061 5.66125 97.4455 5.73776 97.6849 5.89076C97.8845 6.04377 98.0441 6.19677 98.1638 6.42628C98.2835 6.65579 98.3633 6.92355 98.3633 7.26781V7.61207C97.5253 7.68858 96.7273 7.80333 95.9691 7.91808C95.1311 8.07109 94.3729 8.3006 93.7345 8.56836C93.0561 8.87437 92.5373 9.25688 92.1383 9.7159C91.7393 10.2132 91.5397 10.8252 91.5397 11.552C91.5397 12.5082 91.9388 13.2733 92.7369 13.847C93.495 14.4208 94.6522 14.6886 96.2883 14.6886C97.1263 14.6886 97.8845 14.6121 98.5628 14.4973C99.2412 14.3826 99.8398 14.1913 100.319 14.0001L100.478 13.9235V7.34431C100.398 6.69404 100.279 6.15852 100.039 5.73776ZM98.2835 8.87437V12.8908C98.084 12.9673 97.8446 13.0438 97.5652 13.082C97.2061 13.1585 96.8071 13.1968 96.3681 13.1968C95.4902 13.1968 94.8119 13.0438 94.333 12.7378C93.8941 12.47 93.6546 12.0492 93.6546 11.4372C93.6546 10.9782 93.7744 10.5957 93.9739 10.3279C94.1734 10.0219 94.4926 9.7924 94.9316 9.60114C95.3705 9.40989 95.8893 9.25688 96.5277 9.14213C97.0465 9.02737 97.645 8.95087 98.2835 8.87437Z" fill="#96DD43"/>
<path d="M80.646 4.1311H78.4113V14.3825H80.646V4.1311Z" fill="#96DD43"/>
<path d="M79.5287 0.917969C79.2094 0.917969 78.8902 1.03272 78.6907 1.26223C78.4513 1.49174 78.3315 1.7595 78.3315 2.10376C78.3315 2.40977 78.4513 2.71578 78.6907 2.94529C78.9301 3.1748 79.2094 3.28955 79.5287 3.28955C79.8479 3.28955 80.1671 3.1748 80.3666 2.94529C80.6061 2.71578 80.7258 2.44802 80.7258 2.10376C80.7258 1.79775 80.6061 1.49174 80.3666 1.26223C80.1671 1.03272 79.8479 0.917969 79.5287 0.917969Z" fill="#96DD43"/>
<path d="M54.7882 24.1751C54.3093 23.9073 53.7507 23.6778 53.192 23.4866C52.6334 23.3336 52.1545 23.1423 51.6757 22.9511C51.2367 22.7598 50.8776 22.5303 50.5983 22.2625C50.3589 22.033 50.1992 21.727 50.1992 21.3062C50.1992 20.6942 50.4387 20.2352 50.8776 19.8527C51.3564 19.4702 51.9949 19.2789 52.793 19.2789C53.2718 19.2789 53.7507 19.3554 54.1896 19.4702C54.6286 19.5849 54.9478 19.6997 55.1872 19.8527L55.4666 20.0057L56.1848 18.5139L55.9454 18.3991C55.6262 18.2079 55.1473 18.0549 54.5887 17.9019C53.9901 17.7489 53.3117 17.6724 52.5935 17.6724C51.8752 17.6724 51.2367 17.7871 50.6382 17.9784C50.0396 18.1696 49.5608 18.4374 49.1617 18.7817C48.7627 19.1259 48.4036 19.5467 48.204 19.9674C47.9646 20.4265 47.8449 20.9237 47.8449 21.421C47.8449 22.1478 48.0045 22.7215 48.3637 23.1806C48.6829 23.6013 49.1218 23.9456 49.6406 24.2133C50.1194 24.4811 50.6382 24.7106 51.2367 24.8636C51.7555 25.0166 52.2742 25.2079 52.7132 25.4374C53.1521 25.6286 53.5113 25.8582 53.7906 26.1259C54.03 26.3554 54.1497 26.6997 54.1497 27.1587C54.1497 27.4647 54.0699 27.7707 53.9502 28.0385C53.7906 28.3062 53.5911 28.5357 53.3516 28.727C53.0723 28.9183 52.7531 29.0713 52.394 29.186C52.0348 29.3008 51.5959 29.339 51.1968 29.339C50.6382 29.339 50.1194 29.2625 49.6406 29.1478C49.1617 29.033 48.7627 28.88 48.4834 28.7653L48.204 28.6123L47.4459 30.2188L47.6853 30.3336C48.0843 30.5248 48.6031 30.6778 49.2415 30.8308C49.88 30.9838 50.6382 31.0221 51.4363 31.0221C52.1545 31.0221 52.8329 30.9073 53.4315 30.7161C54.03 30.5248 54.5887 30.2571 55.0276 29.9128C55.4666 29.5685 55.8257 29.1478 56.105 28.6505C56.3844 28.1532 56.5041 27.6177 56.5041 27.0439C56.5041 26.3172 56.3444 25.7051 55.9853 25.2461C55.706 24.8254 55.3069 24.4429 54.7882 24.1751Z" fill="#0043A5"/>
<path d="M65.4026 21.0766C65.0036 20.8089 64.5247 20.6176 64.006 20.5029C63.4872 20.3881 62.9286 20.3499 62.3699 20.3499C61.6118 20.3499 60.8935 20.4264 60.2151 20.5794C59.5766 20.7324 59.0579 20.8854 58.6988 21.0384L58.4194 21.1531L59.0978 22.5684L59.3771 22.4537C59.6964 22.3389 60.0954 22.1859 60.6141 22.0712C61.5319 21.8799 62.4497 21.8799 63.2079 21.9947C63.5271 22.0712 63.7666 22.1477 64.006 22.3007C64.2055 22.4537 64.3651 22.6067 64.4848 22.8362C64.6046 23.0657 64.6844 23.3335 64.6844 23.6777V24.022C63.8464 24.0985 63.0483 24.2132 62.2901 24.328C61.4521 24.481 60.694 24.7105 60.0555 24.9783C59.3771 25.2843 58.8584 25.6668 58.4593 26.1258C58.0603 26.6231 57.8608 27.2351 57.8608 27.9619C57.8608 28.9182 58.2598 29.6832 59.0579 30.257C59.8161 30.8307 60.9733 31.0985 62.6093 31.0985C63.4473 31.0985 64.2055 31.022 64.8839 30.9072C65.5622 30.7925 66.1608 30.6012 66.6397 30.41L66.7993 30.3335V23.7925C66.7993 23.1805 66.6796 22.6067 66.4401 22.1859C66.1608 21.7269 65.8416 21.3444 65.4026 21.0766ZM64.6045 25.3225V29.3389C64.405 29.4154 64.1656 29.4919 63.8863 29.5302C63.5271 29.6067 63.1281 29.6449 62.6892 29.6449C61.8113 29.6449 61.1329 29.4919 60.6541 29.1859C60.2151 28.9182 59.9757 28.4974 59.9757 27.8854C59.9757 27.4264 60.0954 27.0438 60.2949 26.7761C60.4944 26.4701 60.8137 26.2406 61.2526 26.0493C61.6916 25.858 62.2103 25.705 62.8488 25.5903C63.3675 25.4755 63.9661 25.399 64.6045 25.3225Z" fill="#0043A5"/>
<path d="M76.5358 21C76.0969 20.7705 75.5781 20.5793 75.0195 20.4645C74.4608 20.3498 73.8623 20.3115 73.2238 20.3115C72.4257 20.3115 71.6276 20.388 70.9094 20.5028C70.1911 20.6175 69.5526 20.8088 69.0738 21L68.8743 21.0766V30.8306H71.1089V22.1093C71.3084 22.0328 71.5478 21.9946 71.8272 21.9181C72.5454 21.8033 73.3435 21.7651 74.0618 21.9181C74.381 21.9946 74.6604 22.0711 74.9397 22.2241C75.1791 22.3771 75.3786 22.5301 75.5382 22.7596C75.6979 22.9509 75.7378 23.2186 75.7378 23.5246V30.8306H77.9325V23.4864C77.9325 22.9126 77.8128 22.4153 77.5334 21.9946C77.3339 21.6121 76.9748 21.2678 76.5358 21Z" fill="#0043A5"/>
<path d="M83.2797 30.8307H85.5941V24.2897H90.4225V22.7214H85.5941V18.552H91.1008V17.022H83.2797V30.8307Z" fill="#0043A5"/>
<path d="M97.0066 20.3499C96.2884 20.3499 95.61 20.4646 94.9715 20.6941C94.3331 20.9236 93.8143 21.2679 93.3355 21.7269C92.8965 22.1859 92.5374 22.7597 92.2581 23.41C92.0186 24.0602 91.8989 24.8253 91.8989 25.705C91.8989 26.6231 92.0186 27.4264 92.298 28.0766C92.5773 28.7652 92.9763 29.3389 93.4552 29.7597C93.934 30.2187 94.5725 30.5247 95.2509 30.7542C95.9292 30.9837 96.6874 31.0602 97.4855 31.0602C98.2836 31.0602 99.0417 30.9837 99.6802 30.8307C100.319 30.6777 100.837 30.5247 101.197 30.3335L101.476 30.2187L100.758 28.6887L100.478 28.8417C100.199 28.9947 99.7999 29.1094 99.3211 29.2242C98.8422 29.3389 98.2836 29.4154 97.6451 29.4154C96.6076 29.4154 95.7696 29.1477 95.1311 28.6504C94.5725 28.1914 94.2134 27.4646 94.0936 26.5466L101.795 25.6285V25.3608C101.795 23.6777 101.356 22.4154 100.518 21.5739C99.6403 20.7706 98.4831 20.3499 97.0066 20.3499ZM99.6004 24.481L93.9739 25.1695C94.0138 24.6723 94.0936 24.2132 94.2134 23.8307C94.373 23.3717 94.5725 22.9892 94.8518 22.7214C95.1311 22.4154 95.4504 22.2242 95.7696 22.0712C96.1287 21.9182 96.5278 21.8417 96.9268 21.8417C97.3259 21.8417 97.685 21.8799 98.0441 21.9947C98.3634 22.1094 98.6427 22.2624 98.8821 22.4919C99.1215 22.7214 99.2812 23.0274 99.4408 23.3717C99.5206 23.6777 99.6004 24.0602 99.6004 24.481Z" fill="#0043A5"/>
<path d="M128.212 20.3499C127.493 20.3499 126.815 20.4646 126.176 20.6941C125.538 20.9236 125.019 21.2679 124.54 21.7269C124.101 22.1859 123.742 22.7597 123.463 23.41C123.224 24.0602 123.104 24.8253 123.104 25.705C123.104 26.6231 123.224 27.4264 123.503 28.0766C123.782 28.7652 124.181 29.3389 124.66 29.7597C125.139 30.2187 125.777 30.5247 126.456 30.7542C127.134 30.9837 127.892 31.0602 128.69 31.0602C129.488 31.0602 130.247 30.9837 130.885 30.8307C131.524 30.6777 132.042 30.5247 132.401 30.3335L132.681 30.2187L131.963 28.6887L131.683 28.8417C131.404 28.9947 131.005 29.1094 130.526 29.2242C130.047 29.3389 129.488 29.4154 128.85 29.4154C127.812 29.4154 126.975 29.1477 126.336 28.6504C125.777 28.1914 125.418 27.4646 125.299 26.5466L133 25.6285V25.3608C133 23.6777 132.561 22.4154 131.723 21.5739C130.845 20.7706 129.688 20.3499 128.212 20.3499ZM130.805 24.481L125.179 25.1695C125.219 24.6723 125.299 24.2132 125.418 23.8307C125.578 23.3717 125.777 22.9892 126.057 22.7214C126.336 22.4154 126.655 22.2242 126.975 22.0712C127.334 21.9182 127.733 21.8417 128.132 21.8417C128.531 21.8417 128.89 21.8799 129.249 21.9947C129.568 22.1094 129.848 22.2624 130.087 22.4919C130.326 22.7214 130.486 23.0274 130.646 23.3717C130.725 23.6777 130.805 24.0602 130.805 24.481Z" fill="#0043A5"/>
<path d="M105.865 16.4482H103.631V30.8308H105.865V16.4482Z" fill="#0043A5"/>
<path d="M110.255 20.5793H108.02V30.8307H110.255V20.5793Z" fill="#0043A5"/>
<path d="M109.137 17.3281C108.818 17.3281 108.499 17.4429 108.299 17.6724C108.06 17.9019 107.94 18.1697 107.94 18.5139C107.94 18.8199 108.06 19.1259 108.299 19.3554C108.539 19.585 108.818 19.6997 109.137 19.6997C109.457 19.6997 109.776 19.585 109.975 19.3554C110.215 19.1259 110.335 18.8582 110.335 18.5139C110.335 18.2079 110.215 17.9019 109.975 17.6724C109.776 17.4429 109.497 17.3281 109.137 17.3281Z" fill="#0043A5"/>
<path d="M120.47 21.7651C119.991 21.3061 119.393 20.9618 118.714 20.694C118.036 20.4645 117.238 20.3115 116.36 20.3115C115.522 20.3115 114.804 20.388 114.165 20.5028C113.527 20.6558 113.008 20.8088 112.609 21L112.449 21.0766V34.9618H114.644V30.9072C114.804 30.9454 115.003 30.9837 115.243 30.9837C115.642 31.0219 116.041 31.0602 116.4 31.0602C117.238 31.0602 117.996 30.9454 118.674 30.6776C119.353 30.4099 119.951 30.0656 120.43 29.5684C120.909 29.0711 121.308 28.4973 121.548 27.8088C121.827 27.1203 121.947 26.3552 121.947 25.5137C121.947 24.7487 121.827 24.0219 121.587 23.4099C121.308 22.7596 120.949 22.2241 120.47 21.7651ZM119.672 25.6285C119.672 26.8525 119.353 27.847 118.714 28.5356C118.076 29.2241 117.198 29.5684 116.041 29.5684C115.761 29.5684 115.442 29.5301 115.163 29.4918C114.963 29.4536 114.804 29.4536 114.684 29.4153V22.0711C114.844 21.9946 115.043 21.9563 115.243 21.9181C115.562 21.8416 115.921 21.8033 116.32 21.8033C116.959 21.8033 117.477 21.8798 117.916 22.0711C118.355 22.2241 118.674 22.4919 118.954 22.7979C119.233 23.1039 119.433 23.5246 119.552 23.9837C119.592 24.4809 119.672 25.0164 119.672 25.6285Z" fill="#0043A5"/>
</g>
<defs>
<clipPath id="clip0">
<rect width="133" height="42" fill="white"/>
</clipPath>
</defs>
</svg>
